<?xml version="1.0" standalone="no"?>
<!DOCTYPE svg PUBLIC "-//W3C//DTD SVG 20010904//EN"
 "http://www.w3.org/TR/2001/REC-SVG-20010904/DTD/svg10.dtd">
<svg version="1.0" xmlns="http://www.w3.org/2000/svg"
 width="300.000000pt" height="112.000000pt" viewBox="0 0 300.000000 112.000000"
 preserveAspectRatio="xMidYMid meet">
<metadata>
Created by potrace 1.10, written by Peter Selinger 2001-2011
</metadata>
<g transform="translate(0.000000,112.000000) scale(0.100000,-0.100000)"
fill="#000000" stroke="none">
<path d="M1080 993 c-8 -3 -26 -10 -40 -16 -14 -6 -28 -10 -32 -9 -14 3 -8
-25 7 -38 12 -10 15 -42 15 -171 0 -138 -2 -159 -16 -159 -9 0 -14 -7 -12 -17
3 -15 15 -18 73 -18 58 0 70 3 73 18 2 10 -3 17 -12 17 -12 0 -16 10 -16 35 0
22 5 35 13 35 17 0 38 -59 31 -86 -5 -19 -1 -20 59 -20 36 1 69 4 73 9 4 4 -4
20 -18 35 -14 15 -34 43 -43 62 -10 19 -23 42 -31 50 -11 14 -10 20 11 42 13
15 34 29 45 33 40 13 14 30 -50 33 -69 3 -98 -10 -67 -32 9 -7 17 -17 17 -22
0 -5 -8 -21 -17 -34 -18 -24 -18 -22 -23 114 -5 137 -9 150 -40 139z m8 -45
c-2 -88 5 -186 15 -216 9 -25 8 -38 -1 -53 -7 -10 -10 -30 -7 -42 4 -15 1 -28
-9 -36 -14 -12 -16 4 -16 162 0 172 0 175 -22 182 -22 6 -22 7 7 20 17 8 31
14 32 15 1 0 1 -15 1 -32z m138 -137 c-10 -15 -55 -19 -67 -5 -9 11 -4 14 30
14 23 0 40 -4 37 -9z m-41 -59 c-5 -23 2 -41 30 -83 40 -61 42 -69 17 -69 -13
0 -26 17 -42 55 -23 54 -33 64 -45 45 -3 -5 -10 -10 -15 -10 -8 0 49 88 58 89
2 1 1 -12 -3 -27z"/>
<path d="M1623 989 c-57 -13 -133 -88 -150 -146 -16 -51 -17 -119 -3 -128 6
-3 10 -14 10 -24 0 -28 46 -82 92 -108 54 -31 135 -36 189 -12 51 24 109 68
109 85 0 20 -22 29 -34 13 -36 -47 -78 -69 -130 -69 -79 0 -111 31 -136 132
-15 60 2 147 37 188 22 26 31 30 78 30 60 0 90 -18 120 -74 32 -58 45 -47 45
39 l0 74 -57 -2 c-32 -1 -74 1 -93 5 -19 3 -54 2 -77 -3z m198 -82 c-8 -8 -11
-3 -11 16 0 21 -5 27 -22 27 -13 0 -30 5 -38 11 -12 8 -11 9 6 4 12 -3 32 -1
45 4 22 8 24 6 27 -22 2 -16 -1 -34 -7 -40z m-201 57 c0 -3 -17 -12 -37 -21
-21 -9 -33 -18 -27 -20 7 -2 4 -24 -9 -64 -18 -52 -19 -66 -8 -113 14 -63 58
-127 103 -149 26 -13 29 -17 12 -17 -27 0 -95 49 -125 91 -35 50 -38 130 -5
193 14 27 23 53 20 58 -3 4 10 17 28 28 33 20 48 25 48 14z"/>
<path d="M2630 993 c-8 -3 -26 -10 -39 -15 -34 -12 -21 -19 16 -9 l31 9 1
-167 c1 -91 3 -175 4 -185 1 -10 -4 -21 -10 -23 -10 -4 -13 33 -13 164 l0 169
-31 11 c-43 17 -57 5 -26 -21 26 -21 26 -23 29 -179 2 -86 2 -153 0 -148 -2 6
-10 7 -19 4 -9 -4 -21 1 -29 12 -13 17 -15 17 -32 2 -10 -10 -22 -14 -25 -10
-4 3 -7 46 -7 95 0 85 1 88 23 88 29 0 51 15 43 29 -4 6 -20 11 -37 11 -24 0
-29 4 -29 24 0 30 -9 56 -20 56 -4 0 -26 -19 -49 -41 -38 -38 -54 -79 -31 -79
6 0 10 -38 10 -94 0 -76 3 -98 19 -117 22 -28 67 -31 105 -6 30 20 36 21 36 4
0 -20 146 -21 154 -1 4 9 -3 18 -20 24 l-26 10 3 192 c2 115 -1 193 -7 194 -5
1 -16 0 -24 -3z m-177 -133 c-3 -11 0 -26 6 -34 8 -10 9 -16 1 -21 -17 -10
-13 -167 6 -193 14 -20 14 -22 -4 -22 -28 0 -32 18 -32 141 0 66 -4 109 -10
109 -5 0 -10 -7 -10 -15 0 -8 -4 -15 -10 -15 -16 0 -12 12 17 42 32 33 43 36
36 8z"/>
<path d="M37 983 c-15 -15 -5 -32 21 -35 l27 -3 0 -173 c0 -149 2 -170 14
-155 13 17 13 17 7 0 -3 -10 -6 -20 -6 -22 0 -2 -16 -1 -36 2 -32 5 -36 4 -32
-13 3 -17 14 -19 121 -20 65 -1 139 3 165 8 59 11 115 48 146 96 31 49 33 148
4 207 -21 41 -64 84 -84 85 -7 0 -25 7 -40 15 -22 11 -64 15 -165 15 -75 0
-139 -3 -142 -7z m123 -28 c-13 -15 -15 -257 -4 -322 5 -29 3 -33 -15 -33 -21
0 -21 4 -21 174 l0 174 -27 10 c-25 9 -22 11 26 11 46 1 52 -1 41 -14z m187 4
c34 -13 80 -55 99 -91 29 -57 7 -196 -36 -223 -13 -8 -13 -4 5 38 31 74 10
193 -42 239 -11 10 -37 24 -59 32 -27 10 -32 15 -17 15 12 1 34 -4 50 -10z
m-26 -32 c45 -30 67 -84 72 -176 4 -80 3 -85 -23 -115 -26 -29 -33 -31 -103
-34 -45 -2 -78 1 -82 8 -4 6 -6 81 -6 168 1 126 4 159 16 168 19 14 92 3 126
-19z"/>
<path d="M370 676 c-5 -13 -19 -31 -31 -40 -13 -8 -20 -18 -16 -22 8 -8 67 56
67 73 0 21 -10 15 -20 -11z"/>
<path d="M598 832 c-32 -8 -78 -47 -78 -66 0 -44 73 -37 78 7 3 22 8 28 25 25
16 -2 23 -11 25 -34 3 -27 -2 -34 -30 -48 -64 -34 -79 -43 -93 -62 -21 -28
-18 -52 10 -78 21 -20 31 -22 63 -16 20 4 44 11 53 14 10 4 19 2 22 -7 7 -18
65 -14 84 6 17 17 8 41 -12 33 -10 -4 -12 14 -9 84 5 81 3 90 -18 113 -25 28
-75 40 -120 29z m94 -29 c19 -22 32 -216 14 -210 -7 2 -13 43 -16 101 -5 91
-7 99 -30 111 -23 13 -23 14 -4 15 11 0 28 -8 36 -17z m-22 -73 c0 -23 -5 -30
-19 -30 -26 0 -71 -38 -71 -60 0 -10 10 -26 22 -34 22 -16 22 -16 -10 -16 -31
0 -36 6 -33 43 1 9 -4 17 -11 17 -12 0 29 29 77 56 11 6 24 20 30 32 13 29 15
28 15 -8z m-8 -95 l5 30 2 -33 c1 -31 -1 -32 -26 -26 -16 4 -31 9 -35 11 -16
9 -7 42 15 58 22 15 22 15 28 -27 5 -40 5 -41 11 -13z"/>
<path d="M828 822 c-52 -17 -58 -29 -29 -54 16 -13 19 -30 19 -92 0 -68 -2
-76 -19 -76 -12 0 -19 -7 -19 -19 0 -16 8 -18 82 -17 70 1 83 4 86 19 3 12 -3
17 -20 17 -23 0 -24 3 -26 80 -2 44 -1 80 2 80 3 0 16 -5 30 -11 33 -15 56 2
56 42 0 35 -30 55 -59 39 -13 -7 -22 -7 -26 0 -8 13 -19 12 -77 -8z m62 -21
c0 -11 -5 -23 -11 -27 -7 -4 -10 -36 -7 -87 2 -58 0 -81 -9 -84 -10 -4 -13 18
-13 86 0 86 -1 92 -22 100 l-23 9 25 10 c40 17 60 14 60 -7z m68 7 c-5 -16
-48 -24 -48 -10 0 11 17 20 38 21 8 1 12 -5 10 -11z"/>
<path d="M1947 825 c-43 -15 -40 -13 -55 -40 -15 -27 9 -54 43 -47 24 4 27 8
29 42 1 8 11 16 22 18 33 5 43 -47 14 -70 -12 -10 -28 -18 -34 -18 -24 0 -86
-67 -86 -92 0 -49 68 -76 119 -49 20 11 26 11 35 0 14 -18 59 -17 80 0 20 17
21 45 2 38 -19 -7 -31 63 -23 131 7 60 -4 79 -51 92 -46 12 -48 12 -95 -5z
m105 -17 c12 -10 17 -35 20 -98 3 -47 6 -92 9 -100 2 -9 -2 -15 -11 -15 -12 0
-16 20 -20 100 -5 94 -6 100 -30 112 -22 11 -23 13 -4 13 11 0 27 -6 36 -12z
m-16 -86 c-4 -11 -19 -22 -36 -25 -16 -4 -37 -18 -46 -32 -16 -25 -16 -27 7
-51 l24 -26 -30 4 c-25 2 -30 7 -30 31 1 20 -3 26 -13 22 -34 -13 14 28 60 51
27 14 52 32 55 40 8 22 16 9 9 -14z m-27 -108 c-9 -11 -15 -12 -25 -3 -21 17
-17 46 9 64 21 15 22 15 25 -15 2 -17 -2 -38 -9 -46z"/>
<path d="M2203 833 c-27 -5 -63 -48 -63 -74 0 -40 25 -70 82 -99 32 -17 63
-29 69 -27 7 1 14 -5 16 -13 4 -12 3 -12 -5 -2 -7 11 -10 10 -14 -6 -7 -25
-59 -19 -79 11 -8 11 -23 30 -34 41 l-20 21 -3 -48 c-2 -27 2 -55 8 -62 6 -7
34 -15 63 -17 41 -4 59 0 84 16 37 23 52 72 35 110 -9 20 -106 76 -131 76 -6
0 -11 9 -11 20 0 30 33 25 73 -10 46 -40 57 -38 57 10 0 37 -2 40 -37 49 -39
11 -51 12 -90 4z m-19 -47 c-5 -22 0 -27 50 -50 62 -29 96 -58 96 -83 0 -14
-3 -14 -22 5 -13 11 -44 30 -70 41 -54 23 -88 72 -67 97 17 20 20 17 13 -10z
m31 -188 c11 -10 15 -17 8 -18 -18 0 -63 48 -63 68 0 12 4 10 17 -8 10 -14 27
-33 38 -42z"/>
<path d="M2814 833 c-12 -2 -36 -20 -55 -39 -32 -33 -34 -39 -34 -104 0 -62 3
-72 27 -96 31 -32 115 -48 142 -28 56 41 66 51 66 66 0 21 -10 22 -44 7 -41
-19 -92 -3 -110 33 -9 17 -14 33 -11 36 2 3 39 5 80 4 83 -1 90 4 77 52 -14
50 -78 82 -138 69z m90 -34 c14 -11 26 -27 26 -35 0 -21 -17 -17 -23 6 -3 11
-20 27 -39 35 -25 11 -28 14 -12 15 12 0 33 -9 48 -21z m-111 -1 c-6 -7 -13
-33 -17 -56 -12 -77 50 -140 123 -127 22 4 21 3 -7 -10 -47 -22 -106 -5 -128
36 -21 42 -14 137 12 156 22 16 29 17 17 1z m69 -15 c29 -35 27 -38 -22 -35
-40 3 -48 7 -43 20 13 35 42 41 65 15z"/>
<path d="M938 341 c-19 -7 -12 -24 12 -33 12 -4 15 -23 13 -88 -1 -70 -4 -85
-24 -106 -12 -13 -21 -24 -18 -25 2 0 28 -2 57 -3 55 -3 68 9 32 32 -16 10
-20 23 -19 65 l0 52 14 -30 c8 -16 24 -51 35 -77 11 -27 24 -48 29 -48 5 0 24
37 42 83 l34 82 3 -59 c2 -46 -1 -61 -14 -70 -28 -21 -10 -31 52 -30 58 1 83
17 45 29 -19 6 -21 14 -21 100 0 73 3 94 15 99 8 3 15 9 15 14 0 11 -55 23
-73 16 -13 -5 -87 -168 -87 -192 0 -28 -18 -9 -39 43 -13 30 -26 53 -30 50 -4
-2 -8 10 -8 27 0 18 -7 36 -18 44 -16 12 -16 14 -3 14 10 0 31 -28 54 -75 21
-41 39 -75 41 -75 8 0 -32 106 -56 150 -9 16 -54 22 -83 11z m254 -107 c2 -52
0 -103 -4 -112 -7 -18 -12 82 -8 157 1 29 -2 41 -9 37 -6 -4 -11 -2 -11 3 0 6
6 11 14 11 12 0 15 -21 18 -96z"/>
<path d="M1261 341 c-16 -10 -6 -31 15 -31 11 0 14 -18 14 -85 0 -106 11 -132
59 -140 54 -9 97 -3 123 17 20 15 23 27 26 105 3 72 8 92 25 111 20 21 20 22
1 23 -10 0 -32 2 -48 3 -36 2 -46 -20 -17 -40 18 -13 21 -25 21 -83 0 -39 -5
-74 -12 -83 -29 -36 -111 -26 -122 15 -8 31 -7 130 2 143 4 6 16 14 26 18 13
4 16 10 9 17 -13 13 -105 21 -122 10z m95 -222 c21 -23 7 -25 -18 -2 -10 9
-18 29 -17 47 l1 31 8 -29 c5 -15 17 -37 26 -47z"/>
<path d="M1553 334 c-4 -10 0 -20 10 -26 24 -13 25 -183 1 -192 -9 -3 -14 -11
-12 -18 3 -8 35 -11 101 -10 105 1 130 11 161 64 35 58 7 153 -52 177 -15 6
-66 13 -115 16 -75 5 -88 4 -94 -11z m69 -101 c2 -54 0 -105 -4 -113 -4 -8 -8
31 -8 87 0 86 -3 104 -17 112 -16 9 -16 10 4 11 21 0 22 -5 25 -97z m105 62
c28 -19 47 -84 34 -117 -11 -29 -39 -53 -69 -61 -47 -11 -52 -2 -52 99 l0 94
33 0 c18 0 42 -7 54 -15z m83 -68 c0 -18 -5 -39 -10 -47 -7 -11 -10 -5 -10 23
0 21 -7 54 -15 75 l-15 37 25 -28 c16 -18 25 -40 25 -60z"/>
</g>
</svg>
